<svg width="59" height="63" viewBox="0 0 59 63" fill="none" xmlns="http://www.w3.org/2000/svg">
<g clip-path="url(#clip0_3_544)">
<path d="M19.2852 38.0175C19.2852 38.0175 19.9894 45.542 29.4956 48.6802C39.0018 45.542 39.7059 38.0175 39.7059 38.0175C39.7411 37.7275 39.7675 37.4374 39.7675 37.1385C39.7675 33.9125 37.4702 31.3018 34.636 31.3018C31.8017 31.3018 29.5044 33.9125 29.5044 37.1385C29.5044 37.1825 29.5044 37.2264 29.5044 37.2792C29.5044 37.2352 29.5044 37.1825 29.5044 37.1385C29.5044 33.9125 27.207 31.3018 24.3728 31.3018C21.5385 31.3018 19.2412 33.9125 19.2412 37.1385C19.2412 37.4374 19.2676 37.7275 19.3028 38.0175H19.2852Z" fill="#371D1E"/>
<path d="M47.6102 4.0699H46.4659V1.65257C46.4659 0.738384 45.7265 0 44.8111 0C43.8957 0 43.1563 0.738384 43.1563 1.65257V4.0699H36.2732V1.65257C36.2732 0.738384 35.5338 0 34.6184 0C33.703 0 32.9636 0.738384 32.9636 1.65257V4.0699H26.0804V1.65257C26.0804 0.738384 25.341 0 24.4168 0C23.4926 0 22.762 0.738384 22.762 1.65257V4.0699H15.8701V1.65257C15.8701 0.738384 15.1307 0 14.2153 0C13.2999 0 12.5605 0.738384 12.5605 1.65257V4.0699H11.4162C5.10518 4.0699 0 8.21892 0 13.3085V51.6254C0 57.8928 5.10518 62.9912 11.381 62.9912H47.6102C53.886 62.9912 58.9912 57.8928 58.9912 51.6254V13.3085C58.9912 8.21892 53.886 4.0699 47.6102 4.0699ZM54.599 51.6342C54.599 55.4843 51.4655 58.6049 47.619 58.6049H11.381C7.53454 58.6049 4.40101 55.4755 4.40101 51.6342V20.4462H54.599V51.6254V51.6342Z" fill="#371D1E"/>
</g>
<defs>
<clipPath id="clip0_3_544">
<rect width="59" height="63" fill="white"/>
</clipPath>
</defs>
</svg>
