<svg width="45" height="66" viewBox="0 0 45 66" fill="none" xmlns="http://www.w3.org/2000/svg">
<g clip-path="url(#clip0_3_578)">
<path d="M45 12.7143C45 5.68393 39.9619 0 33.7479 0C27.5339 0 22.5043 5.68393 22.5043 12.7143C22.5043 12.808 22.5043 12.9103 22.5043 13.0125H22.4785C22.4785 12.9103 22.4957 12.808 22.4957 12.7143C22.5043 5.68393 17.4661 0 11.2521 0C5.03815 0 0 5.68393 0 12.7143C0 13.3619 0.0600801 13.9925 0.128743 14.6146C0.128743 14.6146 1.44192 28.4537 17.8009 36.0039V22.3352C17.8009 22.1562 17.758 19.9662 19.26 18.4238C19.8779 17.7932 20.9851 17.0347 22.7789 17.0347C24.5728 17.0347 25.7486 17.8017 26.3666 18.4323C27.7999 19.9065 27.7656 21.9432 27.757 22.1733V27.4822C27.9372 27.4396 28.1261 27.4226 28.3149 27.4226C29.0788 27.4226 29.774 27.7294 30.2718 28.2236C30.7095 28.6582 31.0013 29.2377 31.0614 29.8853H31.0957C31.1558 29.2377 31.4476 28.6582 31.894 28.2236C32.3918 27.7294 33.087 27.4226 33.8508 27.4226C34.6147 27.4226 35.3014 27.7294 35.8077 28.2236C36.2283 28.6412 36.5201 29.2036 36.5888 29.8342C36.6059 29.8342 36.6231 29.8427 36.6403 29.8427C36.7089 29.2121 37.0008 28.6497 37.4299 28.2236C37.8762 27.7805 38.4684 27.4908 39.1379 27.4396C45.0086 20.9291 44.8884 14.6146 44.8884 14.6146C44.9571 13.9925 45.0172 13.3619 45.0172 12.7143H45Z" fill="#371D1E"/>
<path d="M39.3781 30.0644C37.8504 30.0644 36.6058 31.2915 36.6058 32.8169C36.6058 32.8339 36.6058 32.851 36.6058 32.868C36.6058 32.868 36.6058 32.868 36.5972 32.868C36.5972 32.851 36.5972 32.8339 36.5972 32.8169C36.5972 31.3 35.3613 30.0644 33.8336 30.0644C32.3058 30.0644 31.0613 31.2915 31.0613 32.8169C31.0613 32.8509 31.0699 32.885 31.0699 32.9191C31.0699 32.9191 31.0527 32.9191 31.0441 32.9191C31.0441 32.885 31.0527 32.8509 31.0527 32.8169C31.0527 31.3 29.8168 30.0644 28.289 30.0644C26.7613 30.0644 25.5168 31.2915 25.5168 32.8169C25.5168 32.868 25.5253 32.9106 25.5339 32.9617H25.5168V22.7358C25.5168 22.7358 25.6198 19.8555 22.7273 19.8555C19.8349 19.8555 19.9379 22.9403 19.9379 22.9403V49.7834C19.9379 49.7834 17.6892 46.8009 13.9299 44.7727C10.1706 42.7446 7.92188 46.9031 7.92188 46.9031L22.7273 61.6029V65.983L39.5498 65.9575V61.3302C40.1677 60.8445 41.5067 59.7282 42.1246 58.8078C42.5538 58.1602 42.1246 37.5975 42.1246 32.7998C42.1246 31.283 40.8887 30.0473 39.3609 30.0473L39.3781 30.0644Z" fill="#371D1E"/>
</g>
<defs>
<clipPath id="clip0_3_578">
<rect width="45" height="66" fill="white"/>
</clipPath>
</defs>
</svg>
