<svg width="100" height="78" viewBox="0 0 100 78" fill="none" xmlns="http://www.w3.org/2000/svg">
<g clip-path="url(#clip0_3_480)">
<path d="M32.4303 28.3699C31.0277 28.4271 30.5507 29.5325 29.8924 30.2759C28.5948 31.7434 27.1445 32.4105 25.1123 32.3343C20.6948 32.1818 16.2677 32.3438 11.8502 32.258C10.2473 32.2294 9.71298 32.7726 9.75114 34.3545C9.88472 39.3766 9.60803 44.4559 13.0428 48.7347C14.1496 50.107 15.2086 51.5269 16.7161 52.4513C18.5003 53.5472 18.8724 55.1101 18.5194 56.9779C17.7752 60.9041 15.5617 63.8487 12.0601 65.6308C10.19 66.5837 10.2091 67.4795 11.2491 68.9471C12.6993 70.996 14.1114 73.0829 15.4853 75.1795C15.8861 75.7894 16.5826 76.5136 16.096 77.2379C15.5807 77.9907 14.6076 77.7906 13.7679 77.7239C10.5908 77.4666 8.48218 75.5416 6.73616 73.1401C4.92336 70.6434 3.78797 67.794 3.12964 64.8112C0.772993 54.2143 -0.753579 43.5316 0.381809 32.6487C1.05922 26.1305 2.56671 19.8219 7.21322 14.8474C17.2218 4.13609 36.3517 7.49052 42.2671 20.9178C44.3852 25.7302 45.2726 30.8286 45.5493 36.0127C46.074 45.7234 45.0913 55.3292 42.8778 64.7922C42.0191 68.4515 40.6833 71.9394 38.1454 74.8173C36.3612 76.8376 34.2049 78.1718 31.3712 77.9812C29.9114 77.8859 29.4344 77.2379 30.2931 75.9132C31.8578 73.4832 33.4226 71.0531 34.9968 68.6231C35.8078 67.3652 35.7219 66.5742 34.2049 65.7737C30.4934 63.8201 28.1559 60.7421 27.5452 56.5014C27.3258 54.9957 27.5739 53.6616 28.9764 52.6895C35.8555 47.9057 36.5997 40.8728 36.0559 33.3635C35.9891 32.3914 35.4071 32.2104 34.6724 32.3057C32.2872 32.6392 31.6956 31.6291 32.4303 29.4849C32.5448 29.1609 32.4494 28.7702 32.4494 28.3604L32.4303 28.3699Z" fill="#371D1E"/>
<path d="M88.0355 25.7587C86.7952 26.1876 86.2609 27.3788 85.3831 28.1697C84.8202 28.6748 84.324 29.2752 83.7134 29.7135C82.9788 30.2281 82.0151 30.2091 81.2995 29.8565C80.4218 29.4181 80.9656 28.5223 81.0992 27.8076C81.2232 27.1596 81.5571 26.5211 81.1755 25.835C80.374 25.8826 79.9542 26.502 79.6012 27.0357C77.9506 29.5039 75.7085 30.3139 72.7603 30.0661C69.8121 29.8183 66.8162 30.0089 63.8489 30.0185C63.0379 30.0185 62.0838 29.8565 62.0552 31.162C61.9216 38.1472 61.8453 45.1134 67.1787 50.6692C68.2855 51.8223 69.3446 53.0516 70.7089 53.8997C72.8461 55.2243 73.5045 57.2351 73.514 59.5508C73.5522 65.8022 67.8848 73.3306 61.8548 75.1317C60.6336 75.4938 59.689 75.1603 59.1452 74.093C58.525 72.8637 59.0307 71.8154 60.1947 71.2341C61.8453 70.4146 63.4291 69.5283 64.803 68.299C66.4155 66.8505 67.6558 65.1447 68.4572 63.1244C69.8216 59.6651 69.5354 58.7122 66.7398 56.2916C63.2287 53.2422 60.5763 49.5637 58.9925 45.1706C58.7063 44.3606 58.3819 43.703 57.714 43.0931C55.4909 41.0728 55.0043 38.4331 55.2906 35.5742C55.3383 35.1359 55.4432 34.5164 55.7485 34.3163C58.1052 32.7725 57.6758 30.2662 58.0766 28.0172C59.8417 18.1255 68.047 11.2451 77.8266 11.4071C87.7111 11.5691 95.344 18.5067 96.8706 28.6938C97.1568 30.6379 97.1663 32.4771 99.0364 34.059C101.078 35.7934 99.7138 41.3301 97.0995 43.2551C96.3267 43.8269 95.8306 44.4368 95.4489 45.3135C93.4167 49.983 90.6975 54.1761 86.4422 57.1588C85.2114 58.0165 85.135 59.141 85.3354 60.3799C86.1178 65.2971 89.0373 68.5944 93.3213 70.8434C94.0655 71.2341 94.8479 71.5295 95.2295 72.3777C95.5921 73.1781 95.4203 73.9119 94.9242 74.5218C94.2849 75.2937 93.4358 75.4367 92.4435 75.1412C86.3658 73.3306 80.6412 65.3257 80.9465 58.979C81.0419 56.9015 81.767 55.2148 83.5608 53.9283C90.0678 49.2493 92.6343 42.731 92.1764 34.8786C92.1287 34.1162 92.0142 33.3538 92.0523 32.601C92.1382 30.7808 91.6325 29.6754 89.4953 30.0089C87.6634 30.2948 87.4249 29.2847 87.8924 27.8076C88.1023 27.1691 88.3695 26.5211 88.0546 25.7682L88.0355 25.7587Z" fill="#371D1E"/>
<path d="M39.4903 5.16498C39.5857 3.44964 40.6161 1.59137 42.8201 0.552636C45.005 -0.476564 47.085 -0.0572603 48.6593 1.67713C49.9378 3.07799 50.6915 3.03034 51.9986 1.68666C53.9259 -0.295501 56.0345 -0.447975 58.2194 0.809936C60.3566 2.03926 61.492 4.64085 60.9959 7.04231C60.4806 9.52001 58.7823 11.1877 56.9982 12.7124C49.7756 18.8972 50.8537 18.9543 43.5357 12.6553C41.4557 10.8732 39.4521 8.92918 39.4903 5.16498Z" fill="#371D1E"/>
</g>
<defs>
<clipPath id="clip0_3_480">
<rect width="100" height="78" fill="white"/>
</clipPath>
</defs>
</svg>
