<svg width="82" height="57" viewBox="0 0 82 57" fill="none" xmlns="http://www.w3.org/2000/svg">
<g clip-path="url(#clip0_3_581)">
<path d="M60.7099 13.4297C57.5999 13.4297 55.6199 16.8997 55.1499 16.8997C54.7399 16.8997 52.8499 13.4297 49.5899 13.4297C46.4199 13.4297 43.8399 16.0397 43.6699 19.1997C43.5699 20.9897 44.1499 22.3397 44.9599 23.5797C46.5799 26.0397 53.6699 31.9597 55.1599 31.9597C56.6499 31.9597 63.7099 26.0597 65.3399 23.5797C66.1499 22.3397 66.7299 20.9897 66.6299 19.1997C66.4599 16.0397 63.8799 13.4297 60.7099 13.4297Z" fill="#371D1E"/>
<path d="M15.4101 27.5498C17.5501 27.5498 18.9001 29.9298 19.2201 29.9298C19.5001 29.9298 20.8001 27.5498 23.0301 27.5498C25.2001 27.5498 26.9701 29.3398 27.0901 31.5098C27.1601 32.7298 26.7601 33.6698 26.2001 34.5098C25.0901 36.1998 20.2301 40.2598 19.2101 40.2598C18.1701 40.2598 13.3501 36.2098 12.2301 34.5098C11.6701 33.6598 11.2801 32.7298 11.3401 31.5098C11.4601 29.3398 13.2301 27.5498 15.4001 27.5498" fill="#371D1E"/>
<path d="M76.55 0H34.09C31.55 0 29.48 2.07 29.48 4.61V16.02C29.48 16.73 29.33 16.77 28.64 16.77H3.72C1.67 16.77 0 18.44 0 20.49V45.4C0 47.45 1.67 49.12 3.72 49.12H8.16L8.79 53.48C9.02 55.08 10.22 56.19 11.71 56.19C12.44 56.19 13.15 55.92 13.77 55.42L20.95 49.57C21.2 49.37 21.89 49.12 22.21 49.12H35.76C37.81 49.12 39.48 47.45 39.48 45.4V42.23H52.05C52.54 42.23 53.54 42.58 53.92 42.89L63.43 50.64C64.2 51.26 65.07 51.59 65.96 51.59C67.77 51.59 69.23 50.22 69.52 48.27L70.4 42.23H76.56C79.1 42.23 81.17 40.16 81.17 37.62V4.61C81.17 2.07 79.1 0 76.56 0H76.55ZM33.9 44.83C33.9 44.83 24.42 44.83 20.95 44.83C19.87 44.83 18.85 45.55 18.15 46.12L12.85 50.44L12.5 48.06C12.28 46.57 11.2 44.83 9.66 44.83C8.41 44.83 5.59 44.83 5.59 44.83C4.63 44.83 3.86 44.05 3.86 43.1V23.21C3.86 22.25 4.64 21.48 5.59 21.48H28.65C29.49 21.48 29.49 21.95 29.49 22.24C29.49 26.68 29.49 37.63 29.49 37.63C29.49 40.17 31.51 42.24 33.89 42.24C36.05 42.24 35.79 44.84 33.91 44.84L33.9 44.83ZM76.7 34.56C76.7 36 75.52 37.17 74.09 37.17H68.78C66.89 37.17 65.52 39.28 65.24 41.19L64.7 44.9L57.24 38.82C56.32 38.07 55 37.17 53.66 37.17H36.56C35.12 37.17 33.95 35.99 33.95 34.56V8.2C33.95 6.76 35.13 5.59 36.56 5.59H74.08C75.52 5.59 76.69 6.77 76.69 8.2V34.56H76.7Z" fill="#371D1E"/>
</g>
<defs>
<clipPath id="clip0_3_581">
<rect width="81.17" height="56.2" fill="white"/>
</clipPath>
</defs>
</svg>
