<svg width="80" height="74" viewBox="0 0 80 74" fill="none" xmlns="http://www.w3.org/2000/svg">
<g clip-path="url(#clip0_3_547)">
<path d="M40 0C17.906 0 0 14.2214 0 31.7744C0 43.1947 7.58981 53.2082 18.9745 58.8104C18.1394 61.9446 15.9472 70.1813 15.5051 71.9397C14.9647 74.1238 16.2972 74.0991 17.1815 73.513C17.8692 73.0503 28.1425 66.029 32.576 62.9997C34.9831 63.3575 37.4639 63.5488 40 63.5488C62.0939 63.5488 80 49.3274 80 31.7744C80 14.2214 62.0939 0 40 0Z" fill="#371D1E"/>
<path d="M12.0968 25.9258H16.211C16.211 25.9258 16.2356 37.2906 16.211 39.9374C16.211 41.8686 20.4972 41.8932 20.491 39.9683L20.5094 26.0801C20.5094 26.0801 21.8911 26.0924 24.6052 26.0924C27.1659 26.0924 27.1659 22.0512 24.6052 22.0451C21.7191 22.0451 12.0845 21.9648 12.0845 21.9648C9.67124 21.9648 9.67738 25.932 12.0845 25.932" fill="white"/>
<mask id="mask0_3_547" style="mask-type:luminance" maskUnits="userSpaceOnUse" x="10" y="21" width="17" height="21">
<path d="M12.0968 25.9258H16.211C16.211 25.9258 16.2356 37.2906 16.211 39.9374C16.211 41.8686 20.4972 41.8932 20.491 39.9683L20.5094 26.0801C20.5094 26.0801 21.8911 26.0924 24.6052 26.0924C27.1659 26.0924 27.1659 22.0512 24.6052 22.0451C21.7191 22.0451 12.0845 21.9648 12.0845 21.9648C9.67124 21.9648 9.67738 25.932 12.0845 25.932" fill="white"/>
</mask>
<g mask="url(#mask0_3_547)">
<path d="M27.166 21.959H9.67139V41.8936H27.166V21.959Z" fill="white"/>
</g>
<path d="M31.8021 26.6602L34.0925 33.8727H29.3151L31.8021 26.6602ZM29.2353 23.2792C28.2221 25.5188 24.5623 36.1062 23.3464 38.9134C22.4683 40.9433 26.2571 42.5968 27.1352 40.5669L27.958 37.6733H35.4926C35.4926 37.6733 35.2347 37.7905 36.2356 40.4435C37.0461 42.5906 40.9577 41.1037 40.1472 38.9566C38.9927 35.8902 34.989 24.8401 34.2583 23.2792C33.9206 22.5573 32.717 22.0391 31.5503 22.0391C30.5801 22.0391 29.6406 22.3907 29.2414 23.2792" fill="white"/>
<mask id="mask1_3_547" style="mask-type:luminance" maskUnits="userSpaceOnUse" x="23" y="22" width="18" height="20">
<path d="M31.8021 26.6602L34.0925 33.8727H29.3151L31.8021 26.6602ZM29.2353 23.2792C28.2221 25.5188 24.5623 36.1062 23.3464 38.9134C22.4683 40.9433 26.2571 42.5968 27.1352 40.5669L27.958 37.6733H35.4926C35.4926 37.6733 35.2347 37.7905 36.2356 40.4435C37.0461 42.5906 40.9577 41.1037 40.1472 38.9566C38.9927 35.8902 34.989 24.8401 34.2583 23.2792C33.9206 22.5573 32.717 22.0391 31.5503 22.0391C30.5801 22.0391 29.6406 22.3907 29.2414 23.2792" fill="white"/>
</mask>
<g mask="url(#mask1_3_547)">
<path d="M40.9577 22.0391H22.4683V42.603H40.9577V22.0391Z" fill="white"/>
</g>
<path d="M41.5838 23.9456C41.5899 27.5426 41.6022 39.1418 41.6022 39.1418C41.6022 39.1418 41.2706 41.4493 43.2356 41.4493C45.2006 41.4493 49.5666 41.4307 51.5009 41.4307C53.4352 41.4307 53.4229 37.297 51.4886 37.297C49.5543 37.297 46.0235 37.2785 46.0235 37.2785C46.0235 37.2785 46.0419 26.5554 46.0358 23.9456C46.0358 22.6869 44.9182 22.0576 43.8067 22.0576C42.6953 22.0576 41.5715 22.6931 41.5777 23.9579" fill="white"/>
<mask id="mask2_3_547" style="mask-type:luminance" maskUnits="userSpaceOnUse" x="41" y="22" width="12" height="20">
<path d="M41.5838 23.9456C41.5899 27.5426 41.6022 39.1418 41.6022 39.1418C41.6022 39.1418 41.2706 41.4493 43.2356 41.4493C45.2006 41.4493 49.5666 41.4307 51.5009 41.4307C53.4352 41.4307 53.4229 37.297 51.4886 37.297C49.5543 37.297 46.0235 37.2785 46.0235 37.2785C46.0235 37.2785 46.0419 26.5554 46.0358 23.9456C46.0358 22.6869 44.9182 22.0576 43.8067 22.0576C42.6953 22.0576 41.5715 22.6931 41.5777 23.9579" fill="white"/>
</mask>
<g mask="url(#mask2_3_547)">
<path d="M53.4414 22.0449H41.2769V41.4427H53.4414V22.0449Z" fill="white"/>
</g>
<path d="M53.9573 23.3711C54.0003 24.9506 53.9082 39.2151 53.9082 40.2702C53.9082 41.936 58.1391 41.936 58.1329 40.2702C58.1329 38.3328 58.1329 34.6556 58.1329 34.6556L59.3734 33.6561L64.8017 41.0969C65.9008 42.553 69.3519 39.9246 68.2588 38.4686L62.4928 30.8427C62.4928 30.8427 66.4044 26.5917 67.9457 25.0493C68.8483 24.1547 66.0605 21.3289 65.1578 22.2297C64.2859 23.0996 58.1575 29.2633 58.1575 29.2633C58.1575 29.2633 58.2128 25.3948 58.1575 23.2539C58.1329 22.4395 57.1443 22.0508 56.1311 22.0508C55.0442 22.0508 53.9328 22.5012 53.9573 23.3711Z" fill="white"/>
<mask id="mask3_3_547" style="mask-type:luminance" maskUnits="userSpaceOnUse" x="53" y="22" width="16" height="20">
<path d="M53.9573 23.3711C54.0003 24.9506 53.9082 39.2151 53.9082 40.2702C53.9082 41.936 58.1391 41.936 58.1329 40.2702C58.1329 38.3328 58.1329 34.6556 58.1329 34.6556L59.3734 33.6561L64.8017 41.0969C65.9008 42.553 69.3519 39.9246 68.2588 38.4686L62.4928 30.8427C62.4928 30.8427 66.4044 26.5917 67.9457 25.0493C68.8483 24.1547 66.0605 21.3289 65.1578 22.2297C64.2859 23.0996 58.1575 29.2633 58.1575 29.2633C58.1575 29.2633 58.2128 25.3948 58.1575 23.2539C58.1329 22.4395 57.1443 22.0508 56.1311 22.0508C55.0442 22.0508 53.9328 22.5012 53.9573 23.3711Z" fill="white"/>
</mask>
<g mask="url(#mask3_3_547)">
<path d="M69.358 21.335H53.9082V42.5529H69.358V21.335Z" fill="white"/>
</g>
</g>
<defs>
<clipPath id="clip0_3_547">
<rect width="80" height="73.8462" fill="white"/>
</clipPath>
</defs>
</svg>
