<svg width="60" height="57" viewBox="0 0 60 57" fill="none" xmlns="http://www.w3.org/2000/svg">
<g clip-path="url(#clip0_3_585)">
<path d="M57.4469 28.8102C60.8701 24.9986 60.8988 19.0583 57.2743 15.4409C53.7144 11.881 47.4864 13.5927 46.947 13.0533C46.4796 12.5858 48.2847 6.45135 44.5594 2.72607C40.942 -0.891335 35.0017 -0.862568 31.1901 2.55347C29.0398 4.48803 28.1409 6.69586 27.6662 9.03315C27.0621 11.9817 27.357 18.9361 28.0977 24.1356C28.1121 24.2579 28.1552 24.5743 27.9898 24.7397C25.1347 27.5948 21.4382 31.2913 19.6691 33.0605C19.403 33.3266 19.1009 33.0317 19.1009 33.0317L15.613 29.5438C14.6277 28.5585 13.024 28.5585 12.0387 29.5438C11.0535 30.529 11.0535 32.1328 12.0387 33.118L15.5123 36.5916C15.5123 36.5916 15.8791 36.8433 15.5195 37.2029C15.1671 37.5553 14.3544 38.3679 13.9589 38.7635C13.736 38.9864 13.513 38.7635 13.513 38.7635L9.95315 35.2036C8.96789 34.2183 7.37134 34.2183 6.37889 35.2036C5.39363 36.1889 5.39363 37.7926 6.37889 38.7778L9.91719 42.3161C9.91719 42.3161 10.1689 42.5607 9.91719 42.8124C9.45692 43.2726 8.70899 44.0206 8.28468 44.4449C8.08331 44.6462 7.84599 44.4017 7.84599 44.4017L4.3005 40.8562C3.31524 39.871 1.7187 39.871 0.726248 40.8562C-0.25901 41.8415 -0.25901 43.4452 0.726248 44.4305L4.25735 47.9616C4.53063 48.2349 4.28612 48.4362 4.28612 48.4362C2.27965 50.4427 3.85462 52.1184 5.86109 54.1248C7.86756 56.1313 9.54322 57.7063 11.5497 55.6998C11.5497 55.6998 29.2987 37.9508 35.2102 32.0393C35.39 31.8595 35.6418 31.9026 35.7712 31.9242C40.9564 32.6577 47.9754 32.9526 50.9528 32.3341C53.2973 31.8523 55.4979 30.9605 57.4325 28.8102H57.4469ZM36.1308 23.8695C33.9517 21.6905 33.9517 18.1666 36.1308 15.9875C38.3099 13.8084 41.8338 13.8084 44.0128 15.9875C46.1919 18.1666 46.1919 21.6905 44.0128 23.8695C41.8338 26.0486 38.3099 26.0486 36.1308 23.8695Z" fill="#371D1E"/>
</g>
<defs>
<clipPath id="clip0_3_585">
<rect width="60" height="56.6271" fill="white"/>
</clipPath>
</defs>
</svg>
